{
    "accessors" : [
        {
            "bufferView" : 0,
            "componentType" : 5123,
            "count" : 36,
            "max" : [
                23
            ],
            "min" : [
                0
            ],
            "type" : "SCALAR"
        },
        {
            "bufferView" : 1,
            "componentType" : 5126,
            "count" : 24,
            "max" : [
                1.0000004768371582,
                1.0,
                1.0000005960464478
            ],
            "min" : [
                -1.0000003576278687,
                -1.0,
                -1.0000003576278687
            ],
            "type" : "VEC3"
        },
        {
            "bufferView" : 2,
            "componentType" : 5126,
            "count" : 24,
            "max" : [
                1.0,
                1.0,
                1.0
            ],
            "min" : [
                -1.0,
                -1.0,
                -1.0
            ],
            "type" : "VEC3"
        },
        {
            "bufferView" : 3,
            "componentType" : 5123,
            "count" : 36,
            "max" : [
                23
            ],
            "min" : [
                0
            ],
            "type" : "SCALAR"
        },
        {
            "bufferView" : 4,
            "componentType" : 5126,
            "count" : 24,
            "max" : [
                1.0000004768371582,
                0.8885116577148438,
                -0.9908621907234192
            ],
            "min" : [
                -1.0000003576278687,
                -86.65486145019531,
                -2.7776553630828857
            ],
            "type" : "VEC3"
        },
        {
            "bufferView" : 5,
            "componentType" : 5126,
            "count" : 24,
            "max" : [
                1.0,
                0.020714301615953445,
                0.9999846816062927
            ],
            "min" : [
                -1.0,
                -0.020714299753308296,
                -0.9999846816062927
            ],
            "type" : "VEC3"
        },
        {
            "bufferView" : 6,
            "componentType" : 5123,
            "count" : 36,
            "max" : [
                23
            ],
            "min" : [
                0
            ],
            "type" : "SCALAR"
        },
        {
            "bufferView" : 7,
            "componentType" : 5126,
            "count" : 24,
            "max" : [
                0.9999992847442627,
                0.8885141015052795,
                0.9993165731430054
            ],
            "min" : [
                -1.0000015497207642,
                -1.1114858388900757,
                -1.000684380531311
            ],
            "type" : "VEC3"
        },
        {
            "bufferView" : 8,
            "componentType" : 5126,
            "count" : 24,
            "max" : [
                1.0,
                1.0,
                1.0
            ],
            "min" : [
                -1.0,
                -1.0,
                -1.0
            ],
            "type" : "VEC3"
        }
    ],
    "asset" : {
        "generator" : "Khronos Blender glTF 2.0 exporter",
        "version" : "2.0"
    },
    "bufferViews" : [
        {
            "buffer" : 0,
            "byteLength" : 72,
            "byteOffset" : 0,
            "target" : 34963
        },
        {
            "buffer" : 0,
            "byteLength" : 288,
            "byteOffset" : 72,
            "target" : 34962
        },
        {
            "buffer" : 0,
            "byteLength" : 288,
            "byteOffset" : 360,
            "target" : 34962
        },
        {
            "buffer" : 0,
            "byteLength" : 72,
            "byteOffset" : 648,
            "target" : 34963
        },
        {
            "buffer" : 0,
            "byteLength" : 288,
            "byteOffset" : 720,
            "target" : 34962
        },
        {
            "buffer" : 0,
            "byteLength" : 288,
            "byteOffset" : 1008,
            "target" : 34962
        },
        {
            "buffer" : 0,
            "byteLength" : 72,
            "byteOffset" : 1296,
            "target" : 34963
        },
        {
            "buffer" : 0,
            "byteLength" : 288,
            "byteOffset" : 1368,
            "target" : 34962
        },
        {
            "buffer" : 0,
            "byteLength" : 288,
            "byteOffset" : 1656,
            "target" : 34962
        }
    ],
    "buffers" : [
        {
            "byteLength" : 1944,
            "uri" : "test_import_8.bin"
        }
    ],
    "materials" : [
        {
            "name" : "Material",
            "pbrMetallicRoughness" : {
                "baseColorFactor" : [
                    0.6400000190734865,
                    0.6400000190734865,
                    0.6400000190734865,
                    1.0
                ],
                "metallicFactor" : 0.0
            }
        },
        {
            "name" : "Material.001",
            "pbrMetallicRoughness" : {
                "baseColorFactor" : [
                    0.6400000190734865,
                    0.6400000190734865,
                    0.6400000190734865,
                    1.0
                ],
                "metallicFactor" : 0.0
            }
        },
        {
            "name" : "Material.003",
            "pbrMetallicRoughness" : {
                "baseColorFactor" : [
                    0.6400000190734865,
                    0.6400000190734865,
                    0.6400000190734865,
                    1.0
                ],
                "metallicFactor" : 0.0
            }
        }
    ],
    "meshes" : [
        {
            "name" : "Cube",
            "primitives" : [
                {
                    "attributes" : {
                        "NORMAL" : 2,
                        "POSITION" : 1
                    },
                    "indices" : 0,
                    "material" : 0
                }
            ]
        },
        {
            "name" : "Cube.003",
            "primitives" : [
                {
                    "attributes" : {
                        "NORMAL" : 5,
                        "POSITION" : 4
                    },
                    "indices" : 3,
                    "material" : 1
                }
            ]
        },
        {
            "name" : "Cube.013",
            "primitives" : [
                {
                    "attributes" : {
                        "NORMAL" : 8,
                        "POSITION" : 7
                    },
                    "indices" : 6,
                    "material" : 2
                }
            ]
        }
    ],
    "nodes" : [
        {
            "name" : "Camera",
            "rotation" : [
                0.483536034822464,
                0.33687159419059753,
                -0.20870360732078552,
                0.7804827094078064
            ],
            "translation" : [
                7.481131553649902,
                5.34366512298584,
                6.5076398849487305
            ]
        },
        {
            "mesh" : 0,
            "name" : "Cube",
            "scale" : [
                8.01923656463623,
                0.0858159065246582,
                8.01923656463623
            ]
        },
        {
            "mesh" : 2,
            "name" : "Cube.001",
            "scale" : [
                8.01923656463623,
                0.0858159065246582,
                8.01923656463623
            ],
            "translation" : [
                0.0,
                7.224909782409668,
                29.97709083557129
            ]
        },
        {
            "mesh" : 1,
            "name" : "Cube.002",
            "scale" : [
                8.01923656463623,
                0.0858159065246582,
                8.01923656463623
            ],
            "translation" : [
                0.0,
                7.224909782409668,
                29.97709083557129
            ]
        },
        {
            "name" : "Lamp",
            "rotation" : [
                0.16907575726509094,
                0.7558802962303162,
                -0.27217137813568115,
                0.570947527885437
            ],
            "scale" : [
                1.0,
                1.0,
                0.9999999403953552
            ],
            "translation" : [
                4.076245307922363,
                5.903861999511719,
                -1.0054539442062378
            ]
        }
    ],
    "scene" : 0,
    "scenes" : [
        {
            "name" : "Scene",
            "nodes" : [
                2,
                1,
                4,
                0,
                3
            ]
        }
    ]
}
